<?xml version="1.0" encoding="utf-8"?>
<!-- Generator: Adobe Illustrator 14.0.0, SVG Export Plug-In . SVG Version: 6.00 Build 43363)  -->
<!DOCTYPE svg PUBLIC "-//W3C//DTD SVG 1.1//EN" "http://www.w3.org/Graphics/SVG/1.1/DTD/svg11.dtd">
<svg version="1.1" id="Layer_1" xmlns="http://www.w3.org/2000/svg" xmlns:xlink="http://www.w3.org/1999/xlink" x="0px" y="0px"
	 width="137.594px" height="200px" viewBox="0 0 137.594 200" enable-background="new 0 0 137.594 200" xml:space="preserve">
<g>
	<path fill-rule="evenodd" clip-rule="evenodd" fill="#2CA6DF" d="M29.002,50.716c5.95,0,10.775,4.727,10.775,10.547
		c0,5.829-4.826,10.555-10.775,10.555c-5.948,0-10.77-4.726-10.77-10.555C18.233,55.442,23.054,50.716,29.002,50.716"/>
	<path fill-rule="evenodd" clip-rule="evenodd" fill="#16A74A" d="M42.023,33.733c3.521,0,6.376,2.801,6.376,6.237
		c0,3.445-2.855,6.247-6.376,6.247c-3.511,0-6.361-2.802-6.361-6.247C35.662,36.534,38.512,33.733,42.023,33.733"/>
	<path fill-rule="evenodd" clip-rule="evenodd" fill="#16A74A" d="M21.355,33.267c3.517,0,6.366,2.791,6.366,6.237
		c0,3.446-2.849,6.247-6.366,6.247c-3.52,0-6.375-2.801-6.375-6.247C14.98,36.058,17.835,33.267,21.355,33.267"/>
	<path fill-rule="evenodd" clip-rule="evenodd" fill="#16A74A" d="M6.372,46.873c3.515,0,6.365,2.8,6.365,6.236
		c0,3.445-2.85,6.246-6.365,6.246C2.846,59.355,0,56.554,0,53.109C0,49.673,2.846,46.873,6.372,46.873"/>
	<path fill-rule="evenodd" clip-rule="evenodd" fill="#2CA6DF" d="M63.964,19.632c5.95,0,10.77,4.726,10.77,10.545
		c0,5.83-4.819,10.547-10.77,10.547c-5.954,0-10.77-4.717-10.77-10.547C53.195,24.358,58.011,19.632,63.964,19.632"/>
	<path fill-rule="evenodd" clip-rule="evenodd" fill="#16A74A" d="M42.142,14.736c3.52,0,6.37,2.79,6.37,6.237
		c0,3.445-2.85,6.235-6.37,6.235c-3.516,0-6.366-2.79-6.366-6.235C35.776,17.526,38.626,14.736,42.142,14.736"/>
	<path fill-rule="evenodd" clip-rule="evenodd" fill="#16A74A" d="M57.281,1.24c3.511,0,6.366,2.791,6.366,6.236
		c0,3.457-2.855,6.247-6.366,6.247c-3.52,0-6.371-2.79-6.371-6.247C50.91,4.031,53.761,1.24,57.281,1.24"/>
	<path fill-rule="evenodd" clip-rule="evenodd" fill="#16A74A" d="M76.515,4.239c3.518,0,6.369,2.79,6.369,6.236
		c0,3.447-2.852,6.237-6.369,6.237c-3.519,0-6.367-2.79-6.367-6.237C70.148,7.029,72.997,4.239,76.515,4.239"/>
	<path fill-rule="evenodd" clip-rule="evenodd" fill="#16A74A" d="M90.068,19.662c3.514,0,6.367,2.791,6.367,6.235
		c0,3.447-2.854,6.237-6.367,6.237c-3.515,0-6.375-2.79-6.375-6.237C83.693,22.453,86.553,19.662,90.068,19.662"/>
	<path fill-rule="evenodd" clip-rule="evenodd" fill="#16A74A" d="M86.781,37.844c3.517,0,6.364,2.792,6.364,6.237
		c0,3.436-2.848,6.238-6.364,6.238c-3.516,0-6.376-2.802-6.376-6.238C80.405,40.636,83.265,37.844,86.781,37.844"/>
	<path fill-rule="evenodd" clip-rule="evenodd" fill="#16A74A" d="M99.333,52.394c3.516,0,6.366,2.78,6.366,6.226
		c0,3.447-2.85,6.237-6.366,6.237c-3.521,0-6.374-2.79-6.374-6.237C92.959,55.174,95.812,52.394,99.333,52.394"/>
	<path fill-rule="evenodd" clip-rule="evenodd" fill="#16A74A" d="M128.307,45.642c3.516,0,6.365,2.799,6.365,6.235
		c0,3.446-2.85,6.247-6.365,6.247c-3.52,0-6.371-2.801-6.371-6.247C121.936,48.44,124.787,45.642,128.307,45.642"/>
	<path fill-rule="evenodd" clip-rule="evenodd" fill="#16A74A" d="M130.654,27.347c3.512,0,6.367,2.792,6.367,6.238
		s-2.855,6.237-6.367,6.237c-3.52,0-6.375-2.791-6.375-6.237S127.135,27.347,130.654,27.347"/>
	<path fill-rule="evenodd" clip-rule="evenodd" fill="#16A74A" d="M118.922,12.442c3.516,0,6.367,2.801,6.367,6.236
		c0,3.456-2.852,6.247-6.367,6.247c-3.52,0-6.371-2.791-6.371-6.247C112.551,15.243,115.402,12.442,118.922,12.442"/>
	<path fill-rule="evenodd" clip-rule="evenodd" fill="#2CA6DF" d="M108.658,28.191c5.949,0,10.77,4.729,10.77,10.547
		c0,5.829-4.82,10.557-10.77,10.557c-5.947,0-10.775-4.729-10.775-10.557C97.883,32.92,102.711,28.191,108.658,28.191"/>
	<path fill-rule="evenodd" clip-rule="evenodd" d="M137.594,199.986c-8.309,0.515-17.303,0.384-26.994-0.388
		c-9.691-0.741-14.562-6.916-14.562-18.483V70.104h13.634c3.244,0,6.146,1.257,8.689,3.771c2.518,2.519,3.768,5.519,3.768,9.051
		v16.956h15.465v5.303c0,3.773-1.252,6.862-3.775,9.25c-2.502,2.417-5.533,3.604-9.053,3.604h-2.637v55.827
		c0,4.29,2.516,6.404,7.543,6.404h7.922V199.986z"/>
	<path fill-rule="evenodd" clip-rule="evenodd" d="M87.992,199.986H74.759c-3.775,0-6.869-1.187-9.246-3.573
		c-2.419-2.418-3.609-5.477-3.609-9.279v-51.341c0-6.031-1.801-10.435-5.447-13.208c-3.639-2.772-7.73-4.158-12.239-4.158
		c-4.508,0-8.501,1.386-12.015,4.158c-3.513,2.773-5.283,7.177-5.283,13.208v64.193H0.444v-58.846
		c0-17.112,4.475-28.576,13.395-34.339c8.927-5.804,18.812-8.92,29.641-9.436c11.047,0,21.253,2.9,30.565,8.664
		c9.312,5.803,13.946,17.484,13.946,35.11V199.986z"/>
</g>
</svg>
