<?xml version="1.0" encoding="utf-8"?>
<!-- Generator: Adobe Illustrator 14.0.0, SVG Export Plug-In . SVG Version: 6.00 Build 43363)  -->
<!DOCTYPE svg PUBLIC "-//W3C//DTD SVG 1.1//EN" "http://www.w3.org/Graphics/SVG/1.1/DTD/svg11.dtd">
<svg version="1.1" id="Layer_1" xmlns="http://www.w3.org/2000/svg" xmlns:xlink="http://www.w3.org/1999/xlink" x="0px" y="0px"
	 width="695.636px" height="90.5px" viewBox="0 9.5 695.636 90.5" enable-background="new 0 9.5 695.636 90.5" xml:space="preserve"
	>
<g>
	<g>
		<g>
			<path d="M248.442,70.762c-1.503-2.09-3.535-3.129-6.123-3.129c-2.783,0-4.935,0.995-6.425,2.975
				c-1.487,1.983-2.236,4.724-2.236,8.207v20.418h-10.154v-51.3h5.071c1.405,0,2.587,0.496,3.593,1.49
				c0.993,0.993,1.49,2.189,1.49,3.591v11.767c1.79-2.975,4.326-4.861,7.617-5.662c3.286-0.785,6.416-0.594,9.407,0.598
				c2.784,1.197,5.129,3.077,7.01,5.658c1.896,2.604,2.834,6.172,2.834,10.738V99.23h-9.994V78.66c0-1.483-0.131-2.862-0.373-4.092
				C249.903,73.318,249.336,72.048,248.442,70.762 M213.547,87.023H221c-1.093,4.174-3.18,7.353-6.26,9.537
				c-3.077,2.293-6.958,3.439-11.629,3.439c-5.675,0-10.088-1.848-13.271-5.523c-3.179-3.572-4.771-8.688-4.771-15.356
				c0-6.359,1.541-11.322,4.619-14.897c3.179-3.676,7.611-5.522,13.271-5.522c5.968,0,10.587,1.796,13.867,5.37
				c1.782,2.187,3.08,4.715,3.868,7.606H210.26c-0.491-1.007-0.988-1.757-1.484-2.253c-1.299-1.4-3.129-2.097-5.522-2.097
				c-2.177,0-3.97,0.696-5.358,2.085c-1.79,1.998-2.684,5.279-2.684,9.857c0,4.58,0.894,7.815,2.684,9.707
				c1.286,1.592,3.219,2.396,5.815,2.396c1.676,0,3.129-0.354,4.314-1.058c0.306-0.088,0.57-0.266,0.823-0.523
				c0.243-0.237,0.522-0.521,0.817-0.823c0.203-0.295,0.595-0.702,1.195-1.198C211.457,87.271,212.35,87.023,213.547,87.023
				 M157.171,75.341h15.205c-0.19-2.671-0.892-4.657-2.089-5.94c-1.287-1.39-3.128-2.072-5.512-2.072
				c-2.184,0-3.977,0.684-5.362,2.072C158.012,70.781,157.271,72.773,157.171,75.341 M175.23,87.023h7.458
				c-1.093,4.174-3.183,7.353-6.259,9.537c-3.081,2.293-6.963,3.439-11.634,3.439c-5.657,0-10.102-1.848-13.28-5.523
				c-3.193-3.572-4.783-8.688-4.783-15.356c0-6.359,1.539-11.322,4.633-14.897c3.19-3.676,7.62-5.522,13.28-5.522
				c5.966,0,10.584,1.778,13.867,5.354c3.183,3.665,4.771,8.781,4.771,15.336v1.029v0.597c0,0.496-0.051,0.844-0.153,1.045h-25.788
				c0.102,3.102,0.841,5.403,2.242,6.908c1.282,1.602,3.229,2.404,5.81,2.404c1.695,0,3.132-0.355,4.326-1.059
				c0.293-0.088,0.575-0.265,0.819-0.522c0.25-0.237,0.52-0.521,0.823-0.823c0.091-0.295,0.473-0.701,1.107-1.199
				C173.12,87.271,174.048,87.023,175.23,87.023 M145.932,99.232c-3.281,0.203-6.833,0.153-10.661-0.152
				c-3.829-0.293-5.751-2.732-5.751-7.301V47.932h5.384c1.281,0,2.428,0.496,3.433,1.49c0.993,0.993,1.487,2.18,1.487,3.574v6.697
				h6.107v2.095c0,1.491-0.494,2.71-1.491,3.653c-0.988,0.953-2.185,1.424-3.574,1.424h-1.043v22.049
				c0,1.693,0.995,2.529,2.98,2.529h3.127v7.789H145.932z M116.459,99.232H106.03l-6.122-28.357l-6.109,28.357H83.355l-10.877-39.69
				h10.14l6.26,27.454l5.661-27.454h10.584l5.37,27.454l5.521-23.869c0.598-2.395,2.19-3.585,4.774-3.585h6.564L116.459,99.232z
				 M47.136,75.341H62.34c-0.19-2.671-0.891-4.657-2.086-5.94c-1.285-1.39-3.132-2.072-5.51-2.072c-2.186,0-3.98,0.684-5.366,2.072
				C47.977,70.781,47.238,72.773,47.136,75.341 M65.369,87.023h7.455c-1.092,4.174-3.179,7.353-6.258,9.537
				C63.487,98.854,59.607,100,54.936,100c-5.661,0-10.101-1.848-13.282-5.523c-3.193-3.572-4.784-8.688-4.784-15.356
				c0-6.359,1.542-11.322,4.632-14.897c3.194-3.676,7.622-5.522,13.282-5.522c5.969,0,10.585,1.778,13.869,5.354
				c3.18,3.665,4.771,8.781,4.771,15.336v1.029v0.597c0,0.496-0.053,0.844-0.152,1.045H47.481c0.102,3.102,0.841,5.403,2.242,6.908
				c1.282,1.602,3.229,2.404,5.812,2.404c1.695,0,3.13-0.355,4.328-1.059c0.291-0.088,0.57-0.265,0.813-0.522
				c0.252-0.237,0.521-0.521,0.826-0.823c0.09-0.295,0.473-0.701,1.108-1.199C63.257,87.271,64.188,87.023,65.369,87.023
				 M34.579,99.232h-5.227c-1.491,0-2.713-0.47-3.652-1.41c-0.956-0.957-1.425-2.162-1.425-3.666V73.878
				c0-2.385-0.711-4.122-2.151-5.218c-1.437-1.096-3.054-1.643-4.834-1.643c-1.781,0-3.359,0.547-4.746,1.643
				c-1.388,1.096-2.086,2.833-2.086,5.218v25.354H0V75.988c0-6.76,1.767-11.286,5.291-13.562c3.526-2.293,7.43-3.523,11.707-3.729
				c4.363,0,8.395,1.146,12.073,3.423c3.677,2.293,5.508,6.905,5.508,13.866V99.232z"/>
		</g>
		<g>
			<g>
				<defs>
					<path id="SVGID_1_" d="M197.005,48.233c0,2.012,1.666,3.641,3.721,3.641c2.052,0,3.717-1.629,3.717-3.641
						c0-2.01-1.665-3.632-3.717-3.632C198.671,44.601,197.005,46.223,197.005,48.233 M153.4,49.775c0,3.401,2.812,6.161,6.284,6.161
						c3.472,0,6.287-2.76,6.287-6.161c0-3.396-2.815-6.155-6.287-6.155C156.212,43.62,153.4,46.379,153.4,49.775 M142.76,45.019
						c0,2.009,1.66,3.645,3.717,3.645c2.053,0,3.716-1.636,3.716-3.645c0-2.006-1.663-3.641-3.716-3.641
						C144.42,41.378,142.76,43.013,142.76,45.019 M213.914,44.298c0,2.012,1.664,3.646,3.719,3.646c2.052,0,3.715-1.634,3.715-3.646
						c0-2.004-1.663-3.639-3.715-3.639C215.578,40.659,213.914,42.294,213.914,44.298 M189.68,39.75c0,2.004,1.669,3.639,3.72,3.639
						c2.054,0,3.715-1.635,3.715-3.639c0-2.01-1.661-3.64-3.715-3.64C191.349,36.11,189.68,37.74,189.68,39.75 M163.569,37.35
						c0,2.011,1.665,3.646,3.713,3.646c2.054,0,3.721-1.635,3.721-3.646c0-2.005-1.667-3.64-3.721-3.64
						C165.234,33.711,163.569,35.345,163.569,37.35 M151.502,37.078c0,2.013,1.665,3.646,3.72,3.646
						c2.053,0,3.715-1.633,3.715-3.646c0-2.01-1.662-3.638-3.715-3.638C153.167,33.44,151.502,35.067,151.502,37.078
						 M199.879,36.632c0,3.4,2.816,6.161,6.289,6.161c3.471,0,6.283-2.76,6.283-6.161c0-3.396-2.812-6.155-6.283-6.155
						C202.695,30.478,199.879,33.236,199.879,36.632 M215.282,33.625c0,2.011,1.667,3.639,3.721,3.639
						c2.049,0,3.715-1.628,3.715-3.639c0-2.01-1.666-3.64-3.715-3.64C216.949,29.985,215.282,31.615,215.282,33.625 M191.598,29.139
						c0,2.011,1.67,3.639,3.721,3.639c2.051,0,3.715-1.628,3.715-3.639c0-2.011-1.664-3.64-3.715-3.64
						C193.268,25.499,191.598,27.128,191.598,29.139 M173.802,31.636c0,3.402,2.811,6.155,6.284,6.155s6.285-2.753,6.285-6.155
						c0-3.395-2.812-6.153-6.285-6.153C176.612,25.483,173.802,28.241,173.802,31.636 M163.637,26.264
						c0,2.012,1.663,3.639,3.714,3.639c2.056,0,3.719-1.627,3.719-3.639c0-2.01-1.663-3.639-3.719-3.639
						C165.3,22.625,163.637,24.254,163.637,26.264 M208.438,24.927c0,2.016,1.663,3.644,3.719,3.644c2.05,0,3.713-1.628,3.713-3.644
						c0-2.005-1.663-3.641-3.713-3.641C210.102,21.286,208.438,22.921,208.438,24.927 M183.694,20.139
						c0,2.01,1.662,3.639,3.717,3.639c2.052,0,3.714-1.629,3.714-3.639c0-2.011-1.662-3.639-3.714-3.639
						C185.356,16.5,183.694,18.128,183.694,20.139 M172.469,18.388c0,2.019,1.663,3.645,3.718,3.645
						c2.048,0,3.715-1.626,3.715-3.645c0-2.01-1.667-3.639-3.715-3.639C174.132,14.749,172.469,16.378,172.469,18.388"/>
				</defs>
				<clipPath id="SVGID_2_">
					<use xlink:href="#SVGID_1_"  overflow="visible"/>
				</clipPath>
				
					<linearGradient id="SVGID_3_" gradientUnits="userSpaceOnUse" x1="-897.6094" y1="-229.8125" x2="-897.437" y2="-229.8125" gradientTransform="matrix(463.917 0 0 463.917 416559.4375 106649.375)">
					<stop  offset="0" style="stop-color:#08A650"/>
					<stop  offset="1" style="stop-color:#2BACE2"/>
				</linearGradient>
				<rect x="142.76" y="14.749" clip-path="url(#SVGID_2_)" fill="url(#SVGID_3_)" width="79.958" height="41.187"/>
			</g>
		</g>
		<g>
			<polygon points="280.622,100 279.243,100 279.243,47.932 280.622,47.932 			"/>
		</g>
	</g>
	<g>
		<path stroke="#FFFFFF" d="M307.092,96.938c-1.765-1.688-2.646-4.093-2.646-7.217V66.141h-6.575v-4.988h6.575V50.496h5.441v10.656
			h9.75v4.988h-9.75v21.843c0,2.217,0.353,3.829,1.059,4.837c0.705,1.008,2.015,1.511,3.93,1.511c1.863,0,3.451-0.302,4.762-0.906
			v5.139c-0.706,0.253-1.601,0.466-2.684,0.643c-1.084,0.176-2.104,0.265-3.061,0.265C311.122,99.471,308.854,98.628,307.092,96.938
			z"/>
		<path stroke="#FFFFFF" d="M356.746,66.065c2.67,3.729,3.955,8.691,3.854,14.889H333.09c0,4.535,1.059,8.012,3.175,10.43
			c2.116,2.419,5.139,3.628,9.069,3.628c5.037,0,9.346-1.083,12.924-3.25v5.593c-3.679,1.764-8.087,2.646-13.227,2.646
			c-5.492,0-9.775-1.7-12.848-5.102c-3.074-3.401-4.61-8.376-4.61-14.927c0-6.398,1.447-11.248,4.346-14.549
			c2.896-3.3,6.965-4.95,12.206-4.95C349.868,60.473,354.075,62.337,356.746,66.065z M336.566,67.766
			c-1.713,1.538-2.796,4.271-3.25,8.2h21.54c-0.253-3.526-1.247-6.159-2.985-7.897s-4.32-2.607-7.746-2.607
			C340.799,65.461,338.279,66.229,336.566,67.766z"/>
		<path stroke="#FFFFFF" d="M370.803,98.866V46.792h5.442v52.074H370.803z"/>
		<path stroke="#FFFFFF" d="M415.621,66.065c2.67,3.729,3.955,8.691,3.854,14.889h-27.511c0,4.535,1.059,8.012,3.175,10.43
			c2.116,2.419,5.139,3.628,9.069,3.628c5.037,0,9.346-1.083,12.924-3.25v5.593c-3.679,1.764-8.087,2.646-13.227,2.646
			c-5.492,0-9.775-1.7-12.848-5.102c-3.074-3.401-4.61-8.376-4.61-14.927c0-6.398,1.447-11.248,4.346-14.549
			c2.896-3.3,6.965-4.95,12.206-4.95C408.743,60.473,412.95,62.337,415.621,66.065z M395.441,67.766
			c-1.713,1.538-2.796,4.271-3.25,8.2h21.54c-0.253-3.526-1.247-6.159-2.985-7.897s-4.32-2.607-7.746-2.607
			C399.674,65.461,397.154,66.229,395.441,67.766z"/>
		<path stroke="#FFFFFF" d="M433.76,99.244c-1.814-0.503-3.806-1.31-5.971-2.419v-5.743c2.569,1.462,4.673,2.481,6.311,3.061
			c1.637,0.58,3.59,0.869,5.857,0.869c2.519,0,4.572-0.554,6.159-1.663c1.587-1.107,2.381-2.543,2.381-4.308
			c0-1.562-0.479-2.732-1.436-3.515c-0.958-0.78-2.47-1.574-4.535-2.381l-1.965-0.831c-2.872-0.806-5.102-1.536-6.688-2.191
			c-1.588-0.654-2.974-1.688-4.157-3.099c-1.185-1.41-1.776-3.326-1.776-5.744c0-2.419,0.63-4.434,1.89-6.047
			c1.259-1.611,2.896-2.808,4.913-3.589c2.015-0.781,4.131-1.172,6.349-1.172c2.015,0,3.715,0.227,5.102,0.68
			c1.385,0.453,3.287,1.209,5.706,2.268v5.441c-2.521-1.259-4.447-2.141-5.782-2.645s-2.909-0.756-4.724-0.756
			c-2.218,0-4.107,0.441-5.668,1.322c-1.562,0.882-2.343,2.129-2.343,3.741c0,1.311,0.39,2.381,1.171,3.212s1.764,1.487,2.947,1.965
			c1.184,0.479,2.784,0.996,4.8,1.55c2.519,0.807,4.521,1.537,6.009,2.191c1.485,0.655,2.796,1.7,3.93,3.137
			c1.134,1.436,1.7,3.363,1.7,5.781c0,2.57-0.655,4.724-1.965,6.463c-1.311,1.738-3.011,3.036-5.102,3.892
			c-2.091,0.856-4.271,1.285-6.537,1.285C437.765,100,435.573,99.747,433.76,99.244z"/>
		<path stroke="#FFFFFF" d="M491.425,66.065c2.67,3.729,3.955,8.691,3.854,14.889h-27.511c0,4.535,1.059,8.012,3.175,10.43
			c2.116,2.419,5.139,3.628,9.069,3.628c5.037,0,9.346-1.083,12.924-3.25v5.593C489.258,99.118,484.85,100,479.71,100
			c-5.492,0-9.775-1.7-12.848-5.102c-3.074-3.401-4.61-8.376-4.61-14.927c0-6.398,1.447-11.248,4.346-14.549
			c2.896-3.3,6.965-4.95,12.206-4.95C484.547,60.473,488.754,62.337,491.425,66.065z M471.245,67.766
			c-1.713,1.538-2.796,4.271-3.25,8.2h21.54c-0.253-3.526-1.247-6.159-2.985-7.897s-4.32-2.607-7.746-2.607
			C475.478,65.461,472.958,66.229,471.245,67.766z"/>
		<path stroke="#FFFFFF" d="M505.482,64.176c1.915-0.806,4.446-1.625,7.596-2.457c3.148-0.83,6.411-1.246,9.788-1.246
			c0.503,0,1.31,0.15,2.418,0.453v4.837c-1.209-0.151-2.418-0.227-3.628-0.227c-1.662,0-3.2,0.102-4.61,0.303
			c-1.411,0.201-3.451,0.528-6.121,0.982v32.045h-5.442V64.176z"/>
		<path stroke="#FFFFFF" d="M568.062,61.152l-16.022,37.714h-5.517l-15.947-37.714h5.819l13.377,31.743l12.849-31.743H568.062z"/>
		<path stroke="#FFFFFF" d="M576.752,48.456h6.047v5.97h-6.047V48.456z M577.055,61.152h5.441v37.714h-5.441V61.152z"/>
		<path stroke="#FFFFFF" d="M598.104,95.2c-3.401-2.846-5.102-7.922-5.102-15.229c0-7.256,1.7-12.319,5.102-15.191
			c3.4-2.872,7.595-4.308,12.583-4.308c3.779,0,7.508,0.706,11.186,2.115v5.216c-3.427-1.41-6.953-2.116-10.58-2.116
			c-4.485,0-7.747,1.134-9.788,3.4c-2.04,2.268-3.061,5.896-3.061,10.884c0,5.039,1.021,8.68,3.061,10.921
			c2.041,2.242,5.303,3.363,9.788,3.363c3.778,0,7.305-0.705,10.58-2.116v5.291c-3.527,1.36-7.255,2.04-11.186,2.04
			C605.698,99.471,601.504,98.048,598.104,95.2z"/>
		<path stroke="#FFFFFF" d="M659.358,66.065c2.67,3.729,3.955,8.691,3.854,14.889h-27.511c0,4.535,1.059,8.012,3.175,10.43
			c2.116,2.419,5.139,3.628,9.069,3.628c5.037,0,9.346-1.083,12.924-3.25v5.593c-3.679,1.764-8.087,2.646-13.227,2.646
			c-5.492,0-9.775-1.7-12.848-5.102c-3.074-3.401-4.61-8.376-4.61-14.927c0-6.398,1.447-11.248,4.346-14.549
			c2.896-3.3,6.965-4.95,12.206-4.95C652.48,60.473,656.688,62.337,659.358,66.065z M639.179,67.766
			c-1.713,1.538-2.796,4.271-3.25,8.2h21.54c-0.253-3.526-1.247-6.159-2.985-7.897s-4.32-2.607-7.746-2.607
			C643.411,65.461,640.892,66.229,639.179,67.766z"/>
		<path stroke="#FFFFFF" d="M677.497,99.244c-1.814-0.503-3.806-1.31-5.971-2.419v-5.743c2.569,1.462,4.673,2.481,6.311,3.061
			c1.637,0.58,3.59,0.869,5.857,0.869c2.519,0,4.572-0.554,6.159-1.663c1.587-1.107,2.381-2.543,2.381-4.308
			c0-1.562-0.479-2.732-1.436-3.515c-0.958-0.78-2.47-1.574-4.535-2.381l-1.965-0.831c-2.872-0.806-5.102-1.536-6.688-2.191
			c-1.588-0.654-2.974-1.688-4.157-3.099c-1.185-1.41-1.776-3.326-1.776-5.744c0-2.419,0.63-4.434,1.89-6.047
			c1.259-1.611,2.896-2.808,4.913-3.589c2.015-0.781,4.131-1.172,6.349-1.172c2.015,0,3.715,0.227,5.102,0.68
			c1.385,0.453,3.287,1.209,5.706,2.268v5.441c-2.521-1.259-4.447-2.141-5.782-2.645s-2.909-0.756-4.724-0.756
			c-2.218,0-4.107,0.441-5.668,1.322c-1.562,0.882-2.343,2.129-2.343,3.741c0,1.311,0.39,2.381,1.171,3.212s1.764,1.487,2.947,1.965
			c1.184,0.479,2.784,0.996,4.8,1.55c2.519,0.807,4.521,1.537,6.009,2.191c1.485,0.655,2.796,1.7,3.93,3.137
			c1.134,1.436,1.7,3.363,1.7,5.781c0,2.57-0.655,4.724-1.965,6.463c-1.311,1.738-3.011,3.036-5.102,3.892
			c-2.091,0.856-4.271,1.285-6.537,1.285C681.502,100,679.311,99.747,677.497,99.244z"/>
	</g>
</g>
</svg>
